<svg version="1.1" id="Layer_1" xmlns="http://www.w3.org/2000/svg" xmlns:xlink="http://www.w3.org/1999/xlink" x="0px" y="0px"
	 width="100%" viewBox="0 0 500 500" enable-background="new 0 0 500 500" xml:space="preserve">
<path fill="#000000" opacity="1.000000" stroke="none" 
	d="
M264.000000,501.000000 
	C176.000015,501.000000 88.500038,501.000000 1.000047,501.000000 
	C1.000031,334.333405 1.000031,167.666794 1.000016,1.000136 
	C167.666565,1.000091 334.333130,1.000091 500.999756,1.000046 
	C500.999847,167.666519 500.999847,334.333038 500.999939,500.999786 
	C422.166656,501.000000 343.333344,501.000000 264.000000,501.000000 
M422.933777,417.576080 
	C429.444397,411.695984 435.331970,405.237061 438.901215,397.154785 
	C445.809570,381.511292 446.581940,365.008545 443.862701,348.457306 
	C440.587219,328.519928 433.547791,309.674896 424.983154,291.436340 
	C423.664062,288.627350 421.454773,285.219330 418.857452,284.265137 
	C414.926270,282.820923 410.407318,283.747345 407.188324,287.298859 
	C404.455505,290.313995 404.321503,293.739594 405.806854,297.341492 
	C408.526062,303.935608 411.542908,310.420715 413.961945,317.122253 
	C421.234253,337.268860 427.548828,357.663239 422.930939,379.468903 
	C420.320831,391.793854 414.235626,401.351257 401.592590,406.278137 
	C389.188293,411.111908 376.597015,410.604553 364.118286,408.765961 
	C347.079803,406.255524 330.990356,399.981934 315.482513,392.674011 
	C295.505829,383.260223 276.538788,372.091949 258.428772,359.292084 
	C235.591461,343.150940 214.375870,325.152588 194.436111,305.691742 
	C181.919540,293.475800 170.223114,280.360840 158.818298,267.082703 
	C149.366257,256.078094 140.484222,244.526672 132.051056,232.716675 
	C116.921082,211.528366 103.726334,189.159241 94.040985,164.900406 
	C85.032005,142.335678 77.965385,119.364723 83.046227,94.614510 
	C85.468956,82.812729 92.230484,74.393356 103.706703,69.974350 
	C117.542442,64.646790 131.870178,65.365631 145.631836,68.637878 
	C159.696686,71.982216 173.161926,77.823013 186.935165,82.435051 
	C190.844070,83.743973 195.060608,85.773781 198.866180,85.300911 
	C202.851761,84.805679 206.654175,81.803299 206.989609,76.718742 
	C207.336807,71.455696 204.074127,68.261734 199.887161,66.518936 
	C187.970398,61.558678 176.075729,56.373249 163.776474,52.549953 
	C150.073349,48.290253 135.952606,45.269115 121.381462,46.014206 
	C117.784393,46.198147 114.196304,46.613411 110.613266,47.006084 
	C99.279091,48.248219 89.246391,52.933155 80.639236,60.041813 
	C65.682243,72.394814 60.515652,89.628288 60.266266,108.063110 
	C60.119793,118.890297 61.459446,130.164780 64.558144,140.511032 
	C69.511040,157.048203 75.775330,173.294296 82.774681,189.092148 
	C92.332214,210.663925 104.963089,230.685120 119.303261,249.328766 
	C134.467407,269.043610 150.747498,287.946991 167.293137,306.534515 
	C176.978516,317.415131 188.055618,327.070068 198.664093,337.110016 
	C203.668182,341.845947 208.857376,346.428162 214.288589,350.661957 
	C224.932022,358.959015 235.410873,367.562439 246.673767,374.947144 
	C263.331512,385.869049 280.072418,396.896637 297.766357,405.946777 
	C319.861877,417.248199 342.971619,426.316833 368.108002,429.201752 
	C387.582092,431.436798 405.867645,429.546204 422.933777,417.576080 
M187.024963,110.480560 
	C178.370819,115.699417 169.020844,120.057983 161.237488,126.353432 
	C151.360016,134.342667 141.930557,143.223175 133.851440,152.995468 
	C126.957886,161.333740 121.844711,171.262527 116.722565,180.901474 
	C113.732033,186.529160 116.432770,191.324295 122.612206,194.117355 
	C126.235199,195.754913 132.094513,193.827347 133.780258,190.112137 
	C144.194016,167.161072 160.893127,149.959503 181.896317,136.450119 
	C195.227951,127.875130 209.668472,122.066788 225.051193,118.998650 
	C238.921463,116.232170 252.992233,116.498703 267.089203,118.563232 
	C283.763519,121.005219 299.104950,126.680244 313.443176,135.392273 
	C326.216888,143.153641 336.899506,153.264679 346.181335,164.829254 
	C362.663574,185.365128 372.089050,208.886307 373.900879,235.143738 
	C375.343964,256.057373 371.457397,276.105408 362.317322,295.138641 
	C351.005585,318.693970 334.729065,337.594452 311.996246,350.791412 
	C307.445435,353.433289 302.819580,356.217346 298.988831,359.758545 
	C294.331482,364.063873 296.844482,371.721558 302.687897,374.056519 
	C308.181549,376.251709 312.157776,373.639282 316.631500,371.284454 
	C340.482330,358.729980 358.786713,340.520721 372.608521,317.519348 
	C386.268982,294.786499 393.751404,270.221527 393.865448,243.734497 
	C393.940887,226.214920 391.325439,208.846924 384.740753,192.523560 
	C380.607727,182.277756 375.875519,171.979172 369.594055,162.972229 
	C362.430267,152.700165 354.130859,142.816589 344.699554,134.638672 
	C334.519135,125.811134 323.089355,117.907715 311.079742,111.820389 
	C289.937622,101.104080 267.055115,96.937233 243.171890,97.573257 
	C223.730453,98.090988 205.399612,102.472366 187.024963,110.480560 
M114.875473,301.518585 
	C121.459740,316.558044 130.350922,330.057526 141.524612,342.109192 
	C155.702286,357.400818 172.610397,368.700409 191.694855,376.834686 
	C196.202942,378.756195 200.848007,380.594604 205.613342,381.617035 
	C212.311340,383.054169 216.880417,380.063049 218.167343,374.318695 
	C219.235519,369.550751 215.844742,364.762451 210.114700,362.798859 
	C206.515701,361.565552 202.898102,360.352112 199.396530,358.874542 
	C177.923676,349.813934 160.386368,335.705902 146.558792,317.025360 
	C137.770233,305.152313 131.581787,291.957184 127.350159,277.796997 
	C126.097466,273.605194 124.185783,269.606354 118.933357,269.044922 
	C111.106369,268.208282 106.095177,274.631714 108.498337,282.913635 
	C110.252083,288.957489 112.604713,294.827637 114.875473,301.518585 
z"/>
<path fill="#6DF09A" opacity="1.000000" stroke="none" 
	d="
M422.624023,417.767120 
	C405.867645,429.546204 387.582092,431.436798 368.108002,429.201752 
	C342.971619,426.316833 319.861877,417.248199 297.766357,405.946777 
	C280.072418,396.896637 263.331512,385.869049 246.673767,374.947144 
	C235.410873,367.562439 224.932022,358.959015 214.288589,350.661957 
	C208.857376,346.428162 203.668182,341.845947 198.664093,337.110016 
	C188.055618,327.070068 176.978516,317.415131 167.293137,306.534515 
	C150.747498,287.946991 134.467407,269.043610 119.303261,249.328766 
	C104.963089,230.685120 92.332214,210.663925 82.774681,189.092148 
	C75.775330,173.294296 69.511040,157.048203 64.558144,140.511032 
	C61.459446,130.164780 60.119793,118.890297 60.266266,108.063110 
	C60.515652,89.628288 65.682243,72.394814 80.639236,60.041813 
	C89.246391,52.933155 99.279091,48.248219 110.613266,47.006084 
	C114.196304,46.613411 117.784393,46.198147 121.381462,46.014206 
	C135.952606,45.269115 150.073349,48.290253 163.776474,52.549953 
	C176.075729,56.373249 187.970398,61.558678 199.887161,66.518936 
	C204.074127,68.261734 207.336807,71.455696 206.989609,76.718742 
	C206.654175,81.803299 202.851761,84.805679 198.866180,85.300911 
	C195.060608,85.773781 190.844070,83.743973 186.935165,82.435051 
	C173.161926,77.823013 159.696686,71.982216 145.631836,68.637878 
	C131.870178,65.365631 117.542442,64.646790 103.706703,69.974350 
	C92.230484,74.393356 85.468956,82.812729 83.046227,94.614510 
	C77.965385,119.364723 85.032005,142.335678 94.040985,164.900406 
	C103.726334,189.159241 116.921082,211.528366 132.051056,232.716675 
	C140.484222,244.526672 149.366257,256.078094 158.818298,267.082703 
	C170.223114,280.360840 181.919540,293.475800 194.436111,305.691742 
	C214.375870,325.152588 235.591461,343.150940 258.428772,359.292084 
	C276.538788,372.091949 295.505829,383.260223 315.482513,392.674011 
	C330.990356,399.981934 347.079803,406.255524 364.118286,408.765961 
	C376.597015,410.604553 389.188293,411.111908 401.592590,406.278137 
	C414.235626,401.351257 420.320831,391.793854 422.930939,379.468903 
	C427.548828,357.663239 421.234253,337.268860 413.961945,317.122253 
	C411.542908,310.420715 408.526062,303.935608 405.806854,297.341492 
	C404.321503,293.739594 404.455505,290.313995 407.188324,287.298859 
	C410.407318,283.747345 414.926270,282.820923 418.857452,284.265137 
	C421.454773,285.219330 423.664062,288.627350 424.983154,291.436340 
	C433.547791,309.674896 440.587219,328.519928 443.862701,348.457306 
	C446.581940,365.008545 445.809570,381.511292 438.901215,397.154785 
	C435.331970,405.237061 429.444397,411.695984 422.624023,417.767120 
z"/>
<path fill="#060E1A" opacity="1.000000" stroke="none" 
	d="
M187.360184,110.309250 
	C205.399612,102.472366 223.730453,98.090988 243.171890,97.573257 
	C267.055115,96.937233 289.937622,101.104080 311.079742,111.820389 
	C323.089355,117.907715 334.519135,125.811134 344.699554,134.638672 
	C354.130859,142.816589 362.430267,152.700165 369.594055,162.972229 
	C375.875519,171.979172 380.607727,182.277756 384.740753,192.523560 
	C391.325439,208.846924 393.940887,226.214920 393.865448,243.734497 
	C393.751404,270.221527 386.268982,294.786499 372.608521,317.519348 
	C358.786713,340.520721 340.482330,358.729980 316.631500,371.284454 
	C312.157776,373.639282 308.181549,376.251709 302.687897,374.056519 
	C296.844482,371.721558 294.331482,364.063873 298.988831,359.758545 
	C302.819580,356.217346 307.445435,353.433289 311.996246,350.791412 
	C334.729065,337.594452 351.005585,318.693970 362.317322,295.138641 
	C371.457397,276.105408 375.343964,256.057373 373.900879,235.143738 
	C372.089050,208.886307 362.663574,185.365128 346.181335,164.829254 
	C336.899506,153.264679 326.216888,143.153641 313.443176,135.392273 
	C299.104950,126.680244 283.763519,121.005219 267.089203,118.563232 
	C252.992233,116.498703 238.921463,116.232170 225.051193,118.998650 
	C209.668472,122.066788 195.227951,127.875130 181.896317,136.450119 
	C160.893127,149.959503 144.194016,167.161072 133.780258,190.112137 
	C132.094513,193.827347 126.235199,195.754913 122.612206,194.117355 
	C116.432770,191.324295 113.732033,186.529160 116.722565,180.901474 
	C121.844711,171.262527 126.957886,161.333740 133.851440,152.995468 
	C141.930557,143.223175 151.360016,134.342667 161.237488,126.353432 
	C169.020844,120.057983 178.370819,115.699417 187.360184,110.309250 
z"/>
<path fill="#070F1B" opacity="1.000000" stroke="none" 
	d="
M114.782921,301.146912 
	C112.604713,294.827637 110.252083,288.957489 108.498337,282.913635 
	C106.095177,274.631714 111.106369,268.208282 118.933357,269.044922 
	C124.185783,269.606354 126.097466,273.605194 127.350159,277.796997 
	C131.581787,291.957184 137.770233,305.152313 146.558792,317.025360 
	C160.386368,335.705902 177.923676,349.813934 199.396530,358.874542 
	C202.898102,360.352112 206.515701,361.565552 210.114700,362.798859 
	C215.844742,364.762451 219.235519,369.550751 218.167343,374.318695 
	C216.880417,380.063049 212.311340,383.054169 205.613342,381.617035 
	C200.848007,380.594604 196.202942,378.756195 191.694855,376.834686 
	C172.610397,368.700409 155.702286,357.400818 141.524612,342.109192 
	C130.350922,330.057526 121.459740,316.558044 114.782921,301.146912 
z"/>
</svg>